<?xml version="1.0" encoding="utf-8"?>
<!-- Generator: Adobe Illustrator 24.1.0, SVG Export Plug-In . SVG Version: 6.00 Build 0)  -->
<svg version="1.1" id="Calque_1" xmlns="http://www.w3.org/2000/svg" xmlns:xlink="http://www.w3.org/1999/xlink" x="0px" y="0px"
	 viewBox="0 0 90 112.5" style="enable-background:new 0 0 90 112.5;" xml:space="preserve">
<style type="text/css">
	.st0{fill:#FF3366;}
</style>
<path class="st0" d="M78.3,17.2c-8.9-8.9-23.3-8.9-32.1,0L45,18.4l0,0l0,0l-1.2-1.2c-8.9-8.9-23.3-8.9-32.1,0s-8.9,23.3,0,32.1
	l17.3,17.3l0,0L45,82.7l16.1-16.1l0,0l17.3-17.3C87.2,40.4,87.2,26.1,78.3,17.2z M59.4,50.5c0,0.7-0.6,1.3-1.3,1.3h-7.2V59
	c0,0.7-0.6,1.3-1.3,1.3H45h-4.5c-0.7,0-1.3-0.6-1.3-1.3v-7.2h-7.2c-0.7,0-1.3-0.6-1.3-1.3v-9.1c0-0.7,0.6-1.3,1.3-1.3h7.2v-7.2
	c0-0.7,0.6-1.3,1.3-1.3H45h4.5c0.7,0,1.3,0.6,1.3,1.3v7.2h7.2c0.7,0,1.3,0.6,1.3,1.3L59.4,50.5L59.4,50.5z"/>
</svg>
