<svg version="1" xmlns="http://www.w3.org/2000/svg" width="277.333" height="277.333" viewBox="0 0 208.000000 208.000000"><path d="M55.1 17.8c-4.7 2.3-7.2 6.1-7.8 11.4-1 8.5 4 14.5 12.8 15.7l4.9.6 7.5 12.9c4.1 7.1 7.5 13.4 7.5 14 0 .6-3.5 6.9-7.8 14.1l-7.8 13-15.9.3-16 .2-1.7-2.9c-2.3-4.1-6.1-6.3-11.6-6.8-15.3-1.3-21 19.4-7.3 26.4 6.9 3.5 14.4 1.5 18.7-5l2.1-3.2H64l6.7 11.5c3.6 6.3 7.2 12.7 8 14.3 1.4 2.6 1.2 3.2-5.6 14.6-3.9 6.5-7.4 12.6-7.7 13.5-.4 1-1.8 1.6-3.9 1.6-18.5 0-20.4 26.8-2.1 28.7 11 1.1 18.9-10.7 14-20.9l-1.5-3.3 7.8-13.5 7.9-13.5h15.8c9.4 0 16.4.4 17.1 1 .7.5 2.4 3 3.7 5.5 1.4 2.5 4.6 8.1 7.2 12.5 4.7 7.9 4.8 8 3.2 11.3-5.7 11.8 4.2 24.1 16.2 20.3 4.8-1.5 7.9-4.2 9.6-8.3 3.8-9.3-3.2-19.8-13.4-19.8-3.2 0-3.8-.5-7-6.2-1.9-3.4-5-8.7-6.8-11.7-1.8-3.1-3.7-6.5-4.3-7.6-.8-1.7.3-4.4 6.7-15.5 4.3-7.4 7.9-13.7 8.1-14 .2-.2 7.4-.5 16-.5l15.6-.1 2 3.3c3.4 5.9 11 8.3 17.7 5.6 9.4-3.8 11.8-15.2 4.7-22.9-5.9-6.5-16.4-5.4-21.6 2.1l-2.4 3.5h-31.2l-8.2-14-8.1-13.9 2.2-3.9c9.9-17.9 13.9-23.9 16-23.7 2.8.3 9-1.8 10.8-3.6 5.1-5.1 6.3-11 3.4-17.1-2.2-4.7-5.5-6.8-11.4-7.4-11.6-1.3-19.7 10.3-14.6 20.8 1.5 3.3 1.5 3.5-2.1 9.8-2 3.6-5 9-6.7 12-4.7 8.7-4.3 8.5-22.1 8.5-8.6-.1-15.8-.3-16-.6-.2-.2-3.8-6.3-8-13.5l-7.6-13.1 1.9-3.8c2.2-4.4 1.9-10.6-.9-14.5-2.2-3.2-7.7-6-11.6-6-1.6 0-4.5.8-6.4 1.8z"/></svg>